<svg id="Layer_1" data-name="Layer 1" xmlns="http://www.w3.org/2000/svg" xmlns:xlink="http://www.w3.org/1999/xlink" viewBox="0 0 611.89 508.58"><defs><style>.cls-1{fill:none;}.cls-2{clip-path:url(#clip-path);}.cls-3{opacity:0.2;}.cls-4{clip-path:url(#clip-path-2);}.cls-5{clip-path:url(#clip-path-3);}.cls-6{fill:#f9a11d;}.cls-7{font-size:23px;}.cls-10,.cls-7{font-family:PalatinoLinotype-Roman, Palatino Linotype;}.cls-8{clip-path:url(#clip-path-4);}.cls-9{fill:#442462;}.cls-10{font-size:14.21px;fill:#221f1f;}.cls-11{letter-spacing:0.71em;}.cls-12{letter-spacing:0.78em;}.cls-13{letter-spacing:0.78em;}.cls-14{letter-spacing:0.78em;}.cls-15{clip-path:url(#clip-path-5);}.cls-16{fill:#e68624;}</style><clipPath id="clip-path" transform="translate(542.74 -91.09)"><polyline class="cls-1" points="-331.13 666.34 95.78 666.34 95.78 71.06"/></clipPath><clipPath id="clip-path-2" transform="translate(542.74 -91.09)"><rect class="cls-1" x="-449" y="483.06" width="265.79" height="274.2"/></clipPath><clipPath id="clip-path-3" transform="translate(542.74 -91.09)"><path class="cls-1" d="M-361.73,588.5l-49.35-30.22a12.44,12.44,0,0,1-3-18.6,123.51,123.51,0,0,1,10.5-11.09c49.83-46.55,129.13-43.85,175.68,6s43.84,129.13-6,175.67a124.1,124.1,0,0,1-19.46,14.88,12.43,12.43,0,0,1-17.95-5.63l-23.08-53.38a170.24,170.24,0,0,0-67.34-77.61"/></clipPath><clipPath id="clip-path-4" transform="translate(542.74 -91.09)"><polyline class="cls-1" points="38.23 471.77 510.75 471.77 510.75 71.06 38.23 71.06"/></clipPath><clipPath id="clip-path-5" transform="translate(542.74 -91.09)"><path class="cls-1" d="M-532.67,103.57a21.87,21.87,0,0,0,5.81,30.22,23.14,23.14,0,0,0,2.3,1.36,2.19,2.19,0,0,0,3.06-1.24l3.24-9.6a29.73,29.73,0,0,1,10.63-14.51l8.21-6a2.17,2.17,0,0,0,.26-3.28,21.08,21.08,0,0,0-3.29-2.74,21.58,21.58,0,0,0-12.13-3.71,21.82,21.82,0,0,0-18.09,9.52"/></clipPath></defs><g class="cls-2"><g class="cls-3"><g class="cls-4"><g class="cls-5"><path class="cls-6" d="M-253.84,599.67l3-2.35-5.8-6.74c-.82.77-2.44,2.08-2.34,2.23,1.6,2.38,3.42,4.6,5.19,6.86" transform="translate(542.74 -91.09)"/></g></g></g></g><text class="cls-7" transform="translate(606.14 326.04)"> </text><path class="cls-1" d="M-171.17,471.77" transform="translate(542.74 -91.09)"/><path class="cls-9" d="M-509.19,130.08a14.57,14.57,0,0,0-3.57-5.08,13.17,13.17,0,0,0-4.45-2.76l-1.25,3a9.48,9.48,0,0,1,1.83,1.48q3.57,3.67,3.57,10.38a19.66,19.66,0,0,1-1.63,8.16,11.47,11.47,0,0,1-4.93,5.46,18,18,0,0,1-8.81,1.84,28.67,28.67,0,0,1-5.55-.47q-.15-3.44-.15-5.46l0-7v-7.42c0-2.76,0-5.29.13-7.57a27,27,0,0,1-2-3.45l-.94,0c-1,0-2.86-.06-5.58-.19l-.2.17v1.18l.2.17,1.79.14a5.64,5.64,0,0,1,1.17.22,1.23,1.23,0,0,1,.5.32,1.9,1.9,0,0,1,.27.67,9.29,9.29,0,0,1,.17,1.57c0,.73,0,1.68,0,2.85l0,5.37v8.68c0,1.38,0,3.4-.13,6a19.1,19.1,0,0,1-.33,4.14,14.89,14.89,0,0,1-1.6.88l-.19.24v.78l.19.19c1.54-.13,2.86-.19,4-.19l2.22,0q5.12.15,7,.15a28.09,28.09,0,0,0,5.37-.51,16.82,16.82,0,0,0,5.24-2,17.24,17.24,0,0,0,4.66-4,18.43,18.43,0,0,0,3.16-5.59,18.75,18.75,0,0,0,1.11-6.32,15.85,15.85,0,0,0-1.22-6.18" transform="translate(542.74 -91.09)"/><path class="cls-9" d="M-500.17,121.25l.18-.17q4.33.19,6.74.19c1.79,0,4.19,0,7.22-.16,1.12,0,1.93,0,2.43,0,4,0,6.7.73,8.11,2.18a7.1,7.1,0,0,1,2.13,5.15,8,8,0,0,1-1,3.9,9.29,9.29,0,0,1-3.07,3.28,15.39,15.39,0,0,1-5.61,2c.44.62,1.24,1.68,2.39,3.2l3.36,4.44c1.09,1.47,2.25,3,3.5,4.65a15.31,15.31,0,0,0,2.41,2.77,3.13,3.13,0,0,0,.94.39,8.66,8.66,0,0,0,1.24.07l.19.19v1.11l-.22.21a22.92,22.92,0,0,0-2.69-.14c-1.12,0-2.34.05-3.67.14q-1.64-2-5.13-6.88-4.07-5.67-8.32-10.52l.23-.74c.82.05,1.46.07,1.92.07a9.61,9.61,0,0,0,6.41-2,6.75,6.75,0,0,0,2.31-5.44,5.58,5.58,0,0,0-2.08-4.72,9,9,0,0,0-5.62-1.59,15.92,15.92,0,0,0-4.69.68q-.34.52-.35,8.87v11l0,4.61a33.15,33.15,0,0,0,.14,3.45,2.19,2.19,0,0,0,.35,1,1.7,1.7,0,0,0,.86.44,18.27,18.27,0,0,0,3.14.27l.19.15v1.18l-.19.19-4.16-.14c-1.12,0-2-.05-2.62-.05s-2.75.06-6.77.19l-.18-.19v-1.18l.18-.15a25.61,25.61,0,0,0,2.94-.23,2.23,2.23,0,0,0,1-.37,1.89,1.89,0,0,0,.4-1,22.53,22.53,0,0,0,.18-3.26l0-5v-11l0-4.61a31.77,31.77,0,0,0-.13-3.48,2.16,2.16,0,0,0-.33-1,1.71,1.71,0,0,0-.86-.42,20,20,0,0,0-3.15-.26l-.18-.17Z" transform="translate(542.74 -91.09)"/><path class="cls-9" d="M-462.63,121.08l3,.1q2.91.09,3.81.09t6.78-.19l.19.17v1.18l-.19.17c-1.09,0-1.92.08-2.52.14a3,3,0,0,0-1.28.35,1.7,1.7,0,0,0-.54,1.22,22.37,22.37,0,0,0-.13,2.66l0,5.44v11l0,4.61a33.15,33.15,0,0,0,.14,3.45,2.21,2.21,0,0,0,.34,1,1.75,1.75,0,0,0,.87.44,18.15,18.15,0,0,0,3.14.27l.19.15v1.18l-.19.19-4.16-.14c-1.12,0-2-.05-2.62-.05s-2.75.06-6.77.19l-.19-.19v-1.18l.19-.15a25.14,25.14,0,0,0,2.93-.23,2.28,2.28,0,0,0,1-.37,1.89,1.89,0,0,0,.4-1,22.53,22.53,0,0,0,.18-3.26l0-5v-11l-.05-4.61a34.71,34.71,0,0,0-.13-3.48,2.16,2.16,0,0,0-.33-1,1.75,1.75,0,0,0-.86-.42,20.09,20.09,0,0,0-3.15-.26l-.19-.17v-1.18Z" transform="translate(542.74 -91.09)"/><path class="cls-9" d="M-442.06,154.47v-1.13l5.7-7.05,13.5-17.38c2.05-2.62,3.43-4.49,4.14-5.63h-1l-3.81,0q-5,0-8.07.15c-2,.11-3.39.21-4.05.32a2.08,2.08,0,0,0-1.2.46,3.6,3.6,0,0,0-.37,1.41l-.33,3.12-.21.22h-1.11l-.22-.22c.08-1.2.12-2.15.12-2.86q0-2.88-.12-4.56l.22-.22c5.62.13,9.56.19,11.8.19q5.58,0,14.66-.19l.21.22v1.2c-1.73,2-2.95,3.52-3.64,4.4l-19.7,25.38,9.58.16c1.91,0,3.83-.05,5.77-.14s3.21-.19,3.83-.28a2.88,2.88,0,0,0,1.26-.42,1.52,1.52,0,0,0,.47-.54,13.1,13.1,0,0,0,.37-1.62l.52-3.17.22-.19h1.11l.19.19q-.17,1.51-.33,8.23l-.22.19q-10-.19-15.75-.19-4,0-13.36.19Z" transform="translate(542.74 -91.09)"/><path class="cls-9" d="M-405,154.47v-1.13l5.7-7.05,13.5-17.38c2.05-2.62,3.43-4.49,4.14-5.63h-1l-3.81,0q-5,0-8.07.15c-2,.11-3.39.21-4,.32a2.08,2.08,0,0,0-1.2.46,3.43,3.43,0,0,0-.37,1.41l-.33,3.12-.21.22h-1.12l-.21-.22c.08-1.2.12-2.15.12-2.86q0-2.88-.12-4.56l.21-.22q8.44.19,11.81.19,5.58,0,14.66-.19l.21.22v1.2c-1.73,2-2.95,3.52-3.64,4.4l-19.7,25.38,9.58.16c1.9,0,3.83-.05,5.77-.14s3.21-.19,3.83-.28a2.93,2.93,0,0,0,1.26-.42,1.48,1.48,0,0,0,.46-.54,10.76,10.76,0,0,0,.38-1.62l.52-3.17.22-.19h1.11l.19.19c-.11,1-.23,3.75-.34,8.23l-.21.19q-10-.19-15.75-.19-4,0-13.36.19Z" transform="translate(542.74 -91.09)"/><text class="cls-10" transform="translate(2.13 80.99)"><tspan class="cls-11">T</tspan><tspan class="cls-12" x="18.77" y="0">e</tspan><tspan class="cls-13" x="36.64" y="0">c</tspan><tspan class="cls-12" x="54.02" y="0">ht</tspan><tspan class="cls-14" x="89.04" y="0">o</tspan><tspan class="cls-12" x="107.87" y="0">ni</tspan><tspan class="cls-14" x="142.39" y="0">c</tspan><tspan x="159.77" y="0">s</tspan></text><g class="cls-15"><path class="cls-16" d="M-535.12,130.44a27.38,27.38,0,0,1,8.54-33.82,27.54,27.54,0,0,1,31.63-1c.83.53.71.93.24,1.61q-14,20.28-27.88,40.59c-.67,1-1.34,2-2,3s-.85,1.12-1.94.3a26.63,26.63,0,0,1-8.57-10.61m14.67-34.09a24.29,24.29,0,0,0-11.68,11.26,24.7,24.7,0,0,0,6.76,30.63c1.18.92,1.31.91,2.19-.36L-511,120.15q7-10.25,14.07-20.52c.8-1.18.75-1.38-.5-2.09-7.48-4.27-15.16-4.57-23-1.19" transform="translate(542.74 -91.09)"/><path class="cls-6" d="M-512.53,120.91c-.78,1.2-1.54,2.4-2.35,3.58-2.27,3.31-4.54,6.63-6.86,9.91a3.43,3.43,0,0,1-1.41,1.08,1.36,1.36,0,0,1-1.21-.18c-2.77-2.53-5.16-5.36-6.17-9.09a2.16,2.16,0,0,1,2.6-2.72c.13,0,.23.23.37.28s.66.27.77.17c1.26-1.19,2.9-1.25,4.44-1.55,3-.58,6-1.12,9-1.67.2,0,.42,0,.63,0l.22.24" transform="translate(542.74 -91.09)"/><path class="cls-6" d="M-504,108.74c-1.78,2.47-3.59,4.91-5.39,7.36a6.14,6.14,0,0,1-.42.47l-.33,0c-.25-1.41-.52-2.81-.74-4.22-.61-4-1.23-7.94-1.79-11.92a3.45,3.45,0,0,1,.29-1.76,1.36,1.36,0,0,1,1-.69c3.76-.06,7.43.37,10.72,2.4,0,0,2.11.79.29,3.28Z" transform="translate(542.74 -91.09)"/><path class="cls-6" d="M-512,115.72l-3.62-2.47-10.11-6.93c-1.31-.91-1.47-2-.41-3.19a19.87,19.87,0,0,1,7-5c-.54,1.78-1.07,3.48-1.54,5.19-.06.22.24.53.37.79.21-.16.54-.28.61-.48.29-.91.42-1.88.77-2.76a23.67,23.67,0,0,1,1.64-3.26c.31-.51,1.44-.3,1.88.35a3.69,3.69,0,0,1,.57,1.39q1.41,7.45,2.77,14.92c.06.36,0,.74.09,1.42m-8.52-10.26-.52-.41c-.3.42-.61.83-.92,1.25.16.11.45.34.47.31.34-.36.65-.76,1-1.15" transform="translate(542.74 -91.09)"/><path class="cls-6" d="M-513.3,117.48l-4.28,1q-6,1.34-12,2.64c-1.55.34-2.5-.32-2.61-1.88a21.59,21.59,0,0,1,.13-4.48,19.82,19.82,0,0,1,.78-3.35c.07-.22,2,2.5,3,4,.12.18.55.18.83.27,0-.27.17-.59.06-.78-.46-.83-1.08-1.59-1.48-2.45a23,23,0,0,1-1.26-3.42c-.16-.58.77-1.26,1.54-1.14a3.9,3.9,0,0,1,1.4.53c4.27,2.71,8.53,5.45,12.79,8.18.31.2.57.47,1.1.9m-13.32-.78-.65.09c.09.51.19,1,.28,1.53a2.74,2.74,0,0,0,.55-.13c0-.5-.11-1-.18-1.49" transform="translate(542.74 -91.09)"/></g><path class="cls-6" d="M-517.32,107.27h-6.47l4-8.85s3.38-2,4.32-.43c1.33,2.26-1.86,9.28-1.86,9.28" transform="translate(542.74 -91.09)"/><path class="cls-6" d="M-530.53,126.21s-.6-2.26,2.14-2.67c.4-.06.81-.12,1.21-.2l4.83-1-2.78,4.64-2.43,2.42Z" transform="translate(542.74 -91.09)"/><path class="cls-6" d="M-531.46,116.34s-.53-7.52,2.19-8.39l6.92,8.39s-3.26,2.22-3.73,2.42-5.38-2.42-5.38-2.42" transform="translate(542.74 -91.09)"/></svg>